<svg width="41" height="41" viewBox="0 0 41 41" fill="none" xmlns="http://www.w3.org/2000/svg">
<path d="M14.25 35.5833C15.6307 35.5833 16.75 34.464 16.75 33.0833C16.75 31.7025 15.6307 30.5833 14.25 30.5833C12.8693 30.5833 11.75 31.7025 11.75 33.0833C11.75 34.464 12.8693 35.5833 14.25 35.5833Z" fill="#1F7E9D"/>
<path d="M31.75 35.5833C33.1307 35.5833 34.25 34.464 34.25 33.0833C34.25 31.7025 33.1307 30.5833 31.75 30.5833C30.3693 30.5833 29.25 31.7025 29.25 33.0833C29.25 34.464 30.3693 35.5833 31.75 35.5833Z" fill="#1F7E9D"/>
<path d="M13.6078 24.3333H34.025L37.025 9.33325H10.9602L10.2984 5.58325H3V8.08325H8.20156L11.9516 29.3333H34.25V26.8333H14.0484L13.6078 24.3333Z" fill="#1F7E9D"/>
</svg>
