<svg width="24" height="24" viewBox="0 0 24 24" fill="none" xmlns="http://www.w3.org/2000/svg">
<g clip-path="url(#clip0_39_651)">
<path d="M18.9474 18.9474C19.6174 18.9474 20.26 19.2135 20.7337 19.6873C21.2075 20.1611 21.4737 20.8037 21.4737 21.4737C21.4737 22.1437 21.2075 22.7863 20.7337 23.2601C20.26 23.7338 19.6174 24 18.9474 24C18.2773 24 17.6348 23.7338 17.161 23.2601C16.6872 22.7863 16.4211 22.1437 16.4211 21.4737C16.4211 20.8037 16.6872 20.1611 17.161 19.6873C17.6348 19.2135 18.2773 18.9474 18.9474 18.9474ZM18.9474 20.2105C18.6124 20.2105 18.2911 20.3436 18.0542 20.5805C17.8173 20.8174 17.6842 21.1387 17.6842 21.4737C17.6842 21.8087 17.8173 22.13 18.0542 22.3669C18.2911 22.6038 18.6124 22.7368 18.9474 22.7368C19.2824 22.7368 19.6037 22.6038 19.8406 22.3669C20.0774 22.13 20.2105 21.8087 20.2105 21.4737C20.2105 21.1387 20.0774 20.8174 19.8406 20.5805C19.6037 20.3436 19.2824 20.2105 18.9474 20.2105ZM7.57895 18.9474C8.24897 18.9474 8.89155 19.2135 9.36532 19.6873C9.8391 20.1611 10.1053 20.8037 10.1053 21.4737C10.1053 22.1437 9.8391 22.7863 9.36532 23.2601C8.89155 23.7338 8.24897 24 7.57895 24C6.90893 24 6.26635 23.7338 5.79257 23.2601C5.3188 22.7863 5.05263 22.1437 5.05263 21.4737C5.05263 20.8037 5.3188 20.1611 5.79257 19.6873C6.26635 19.2135 6.90893 18.9474 7.57895 18.9474ZM7.57895 20.2105C7.24394 20.2105 6.92265 20.3436 6.68576 20.5805C6.44887 20.8174 6.31579 21.1387 6.31579 21.4737C6.31579 21.8087 6.44887 22.13 6.68576 22.3669C6.92265 22.6038 7.24394 22.7368 7.57895 22.7368C7.91396 22.7368 8.23525 22.6038 8.47213 22.3669C8.70902 22.13 8.8421 21.8087 8.8421 21.4737C8.8421 21.1387 8.70902 20.8174 8.47213 20.5805C8.23525 20.3436 7.91396 20.2105 7.57895 20.2105ZM21.4737 3.78947H4.13053L7.35158 11.3684H17.6842C18.1011 11.3684 18.4674 11.1663 18.6947 10.8632L22.4842 5.81053C22.6484 5.59579 22.7368 5.33053 22.7368 5.05263C22.7368 4.71762 22.6038 4.39633 22.3669 4.15944C22.13 3.92256 21.8087 3.78947 21.4737 3.78947ZM17.6842 12.6316H7.41474L6.4421 14.6021L6.31579 15.1579C6.31579 15.4929 6.44887 15.8142 6.68576 16.0511C6.92265 16.288 7.24394 16.4211 7.57895 16.4211H21.4737V17.6842H7.57895C6.90893 17.6842 6.26635 17.418 5.79257 16.9443C5.3188 16.4705 5.05263 15.8279 5.05263 15.1579C5.05226 14.7293 5.16093 14.3077 5.36842 13.9326L6.27789 12.0758L1.69263 1.26316H0V0H2.52632L3.6 2.52632H21.4737C22.1437 2.52632 22.7863 2.79248 23.2601 3.26626C23.7338 3.74003 24 4.38261 24 5.05263C24 5.68421 23.7853 6.21474 23.4316 6.64421L19.7558 11.5579C19.3011 12.2021 18.5432 12.6316 17.6842 12.6316Z" fill="#0B3040"/>
</g>
<defs>
<clipPath id="clip0_39_651">
<rect width="24" height="24" fill="white"/>
</clipPath>
</defs>
</svg>
