<svg width="24" height="24" viewBox="0 0 24 24" fill="none" xmlns="http://www.w3.org/2000/svg">
<path d="M11.5565 3.83091L12 4.68269L12.4435 3.83091C13.5194 1.76452 15.3834 0.5 17.4545 0.5C20.6893 0.5 23.5 3.77765 23.5 8C23.5 9.87706 22.7947 11.7871 21.6963 13.6178C20.5994 15.4458 19.1294 17.1635 17.6464 18.6464C16.1651 20.1278 14.6818 21.364 13.568 22.2303C13.0115 22.6631 12.5483 23.0028 12.225 23.2338C12.1405 23.2941 12.0656 23.347 12.0011 23.3922C11.9364 23.3465 11.8612 23.2931 11.7764 23.232C11.453 22.9994 10.9897 22.6573 10.4331 22.2218C9.31913 21.3503 7.83563 20.1076 6.35404 18.6219C4.87085 17.1346 3.40054 15.4146 2.30356 13.5893C1.2048 11.7611 0.5 9.85968 0.5 8C0.5 3.77765 3.31073 0.5 6.54545 0.5C8.61665 0.5 10.4806 1.76452 11.5565 3.83091Z" stroke="#0B3040"/>
</svg>
