<svg width="75" height="47" viewBox="0 0 75 47" fill="none" xmlns="http://www.w3.org/2000/svg">
<path d="M47.6449 4.95654H27.366V41.3506H47.6449V4.95654Z" fill="#FF5F00"/>
<path d="M28.6534 23.1535C28.6534 16.0805 31.9367 9.32891 37.4732 4.95648C27.4303 -2.95247 12.8809 -1.21636 4.96244 8.87881C-2.95602 18.9097 -1.21782 33.4416 8.88948 41.3505C17.323 47.9735 29.1041 47.9735 37.5375 41.3505C31.9367 36.9781 28.6534 30.2265 28.6534 23.1535Z" fill="#EB001B"/>
<path d="M75.0054 23.1535C75.0054 35.9493 64.6406 46.3016 51.8294 46.3016C46.6149 46.3016 41.5934 44.5655 37.5376 41.3505C47.5805 33.4416 49.3187 18.9097 41.4003 8.81451C40.2415 7.3999 38.9539 6.04959 37.5376 4.95648C47.5805 -2.95247 62.1943 -1.21636 70.0483 8.87881C73.2672 12.9297 75.0054 17.9452 75.0054 23.1535Z" fill="#F79E1B"/>
<path d="M72.8166 37.4925V36.7209H73.1385V36.5923H72.366V36.7209H72.6879V37.4925H72.8166ZM74.2973 37.4925V36.5923H74.0398L73.7823 37.2353L73.5248 36.5923H73.2673V37.4925H73.4604V36.7852L73.7179 37.3639H73.911L74.1685 36.7852V37.4925H74.2973Z" fill="#F79E1B"/>
</svg>
