<svg width="24" height="24" viewBox="0 0 24 24" fill="none" xmlns="http://www.w3.org/2000/svg">
<g clip-path="url(#clip0_39_649)">
<path d="M22.9658 24L13.7923 14.8277C13.0599 15.4517 12.2175 15.9346 11.2653 16.2764C10.3131 16.6181 9.35604 16.789 8.39407 16.789C6.04822 16.789 4.06275 15.9771 2.43765 14.3531C0.81255 12.7292 0 10.7445 0 8.3989C0 6.05334 0.811572 4.06763 2.43472 2.44175C4.05786 0.815871 6.04236 0.00195652 8.38821 3.5126e-06C10.7341 -0.00194949 12.7205 0.810501 14.3476 2.43735C15.9746 4.06421 16.7881 6.04993 16.7881 8.39451C16.7881 9.41203 16.6079 10.3968 16.2476 11.3489C15.8872 12.301 15.4135 13.1154 14.8266 13.7921L24 22.963L22.9658 24ZM8.39553 15.3228C10.339 15.3228 11.9797 14.6539 13.3177 13.3161C14.6557 11.9783 15.3247 10.3373 15.3247 8.39304C15.3247 6.44883 14.6557 4.8083 13.3177 3.47147C11.9797 2.13464 10.339 1.46573 8.39553 1.46476C6.45205 1.46378 4.81084 2.13269 3.47189 3.47147C2.13294 4.81026 1.46396 6.45078 1.46493 8.39304C1.46591 10.3353 2.1349 11.9758 3.47189 13.3146C4.80889 14.6534 6.44961 15.3223 8.39407 15.3213" fill="#0B3040"/>
</g>
<defs>
<clipPath id="clip0_39_649">
<rect width="24" height="24" fill="white"/>
</clipPath>
</defs>
</svg>
