<svg width="30" height="30" viewBox="0 0 30 30" fill="none" xmlns="http://www.w3.org/2000/svg">
<path d="M11.3333 0C14.2065 0 16.962 1.14137 18.9937 3.17301C21.0253 5.20465 22.1667 7.96015 22.1667 10.8333C22.1667 13.5167 21.1833 15.9833 19.5667 17.8833L20.0167 18.3333H21.3333L29.6667 26.6667L27.1667 29.1667L18.8333 20.8333V19.5167L18.3833 19.0667C16.4173 20.7441 13.9177 21.6659 11.3333 21.6667C8.46015 21.6667 5.70465 20.5253 3.67301 18.4937C1.64137 16.462 0.5 13.7065 0.5 10.8333C0.5 7.96015 1.64137 5.20465 3.67301 3.17301C5.70465 1.14137 8.46015 0 11.3333 0ZM11.3333 3.33333C7.16667 3.33333 3.83333 6.66667 3.83333 10.8333C3.83333 15 7.16667 18.3333 11.3333 18.3333C15.5 18.3333 18.8333 15 18.8333 10.8333C18.8333 6.66667 15.5 3.33333 11.3333 3.33333Z" fill="#1F7E9D"/>
</svg>
