<svg width="41" height="41" viewBox="0 0 41 41" fill="none" xmlns="http://www.w3.org/2000/svg">
<path fill-rule="evenodd" clip-rule="evenodd" d="M27.6667 15.2084C27.6667 17.1091 26.9116 18.932 25.5676 20.276C24.2236 21.62 22.4008 22.3751 20.5 22.3751C18.5993 22.3751 16.7765 21.62 15.4324 20.276C14.0884 18.932 13.3334 17.1091 13.3334 15.2084C13.3334 13.3077 14.0884 11.4848 15.4324 10.1408C16.7765 8.79681 18.5993 8.04175 20.5 8.04175C22.4008 8.04175 24.2236 8.79681 25.5676 10.1408C26.9116 11.4848 27.6667 13.3077 27.6667 15.2084ZM24.0834 15.2084C24.0834 16.1588 23.7058 17.0702 23.0338 17.7422C22.3618 18.4142 21.4504 18.7917 20.5 18.7917C19.5497 18.7917 18.6382 18.4142 17.9662 17.7422C17.2942 17.0702 16.9167 16.1588 16.9167 15.2084C16.9167 14.2581 17.2942 13.3466 17.9662 12.6746C18.6382 12.0026 19.5497 11.6251 20.5 11.6251C21.4504 11.6251 22.3618 12.0026 23.0338 12.6746C23.7058 13.3466 24.0834 14.2581 24.0834 15.2084Z" fill="#1F7E9D"/>
<path fill-rule="evenodd" clip-rule="evenodd" d="M20.5 0.875C9.61565 0.875 0.791687 9.69896 0.791687 20.5833C0.791687 31.4677 9.61565 40.2917 20.5 40.2917C31.3844 40.2917 40.2084 31.4677 40.2084 20.5833C40.2084 9.69896 31.3844 0.875 20.5 0.875ZM4.37502 20.5833C4.37502 24.3279 5.65248 27.7751 7.79352 30.5128C9.29714 28.5382 11.2369 26.9379 13.4613 25.8371C15.6858 24.7362 18.1346 24.1645 20.6165 24.1667C23.0663 24.1643 25.4843 24.7212 27.6863 25.7949C29.8883 26.8686 31.8161 28.4307 33.323 30.3623C34.8754 28.3262 35.9206 25.9498 36.3722 23.4296C36.8238 20.9094 36.6688 18.3178 35.92 15.8694C35.1712 13.421 33.8501 11.1861 32.0661 9.34965C30.2821 7.51317 28.0864 6.12792 25.6607 5.3085C23.235 4.48907 20.6491 4.25905 18.1169 4.63745C15.5846 5.01585 13.1789 5.99181 11.0987 7.48455C9.01857 8.9773 7.32377 10.9439 6.15456 13.2217C4.98535 15.4995 4.37534 18.023 4.37502 20.5833ZM20.5 36.7083C16.7983 36.7139 13.2084 35.4405 10.3377 33.1035C11.4932 31.4493 13.0312 30.0987 14.8208 29.1666C16.6104 28.2346 18.5987 27.7486 20.6165 27.75C22.6091 27.7484 24.5734 28.2222 26.3461 29.1321C28.1188 30.042 29.6489 31.3617 30.8093 32.9817C27.9163 35.3945 24.2672 36.7136 20.5 36.7083Z" fill="#1F7E9D"/>
</svg>
